<svg xmlns="http://www.w3.org/2000/svg" viewBox="0 0 1600 900">
  <defs>
    <linearGradient id="bg" x1="0" x2="1" y1="0" y2="1">
      <stop offset="0%" stop-color="#001a39"/>
      <stop offset="55%" stop-color="#0054a8"/>
      <stop offset="100%" stop-color="#0a0f19"/>
    </linearGradient>
    <linearGradient id="shine" x1="0" x2="1">
      <stop offset="0%" stop-color="rgba(255,255,255,0)"/>
      <stop offset="50%" stop-color="rgba(255,255,255,0.18)"/>
      <stop offset="100%" stop-color="rgba(255,255,255,0)"/>
    </linearGradient>
  </defs>
  <rect width="1600" height="900" fill="url(#bg)"/>
  <circle cx="280" cy="180" r="220" fill="rgba(255,255,255,0.05)"/>
  <circle cx="1220" cy="240" r="180" fill="rgba(255,255,255,0.04)"/>
  <path d="M0 700 C 250 520, 450 820, 700 650 S 1150 550, 1600 740 L1600 900 L0 900 Z" fill="rgba(0,0,0,0.24)"/>
  <path d="M0 780 C 280 630, 520 890, 820 740 S 1280 650, 1600 800 L1600 900 L0 900 Z" fill="rgba(255,255,255,0.06)"/>
  <g opacity="0.18" stroke="#45ddff" stroke-width="2" fill="none">
    <path d="M120 220 L420 220 L530 320 L880 320" />
    <path d="M980 220 L1120 220 L1260 360 L1480 360" />
    <path d="M280 520 L520 520 L630 450 L1010 450" />
    <circle cx="420" cy="220" r="6" fill="#45ddff"/>
    <circle cx="880" cy="320" r="6" fill="#45ddff"/>
    <circle cx="1260" cy="360" r="6" fill="#45ddff"/>
    <circle cx="1010" cy="450" r="6" fill="#45ddff"/>
  </g>
  <rect x="72" y="60" width="520" height="120" rx="24" fill="rgba(255,255,255,0.07)" stroke="rgba(255,255,255,0.14)"/>
  <text x="110" y="138" fill="white" font-family="Inter,Segoe UI,sans-serif" font-size="54" font-weight="700">Volatility Bazaar</text>
  <rect x="-200" y="0" width="420" height="900" fill="url(#shine)" transform="rotate(12 0 0)"/>
</svg>